<?xml version="1.0" encoding="UTF-8"?>
<!DOCTYPE svg PUBLIC "-//W3C//DTD SVG 1.1//EN" "http://www.w3.org/Graphics/SVG/1.1/DTD/svg11.dtd">
<svg xmlns="http://www.w3.org/2000/svg" version="1.1" width="466px" height="453px" style="shape-rendering:geometricPrecision; text-rendering:geometricPrecision; image-rendering:optimizeQuality; fill-rule:evenodd; clip-rule:evenodd" xmlns:xlink="http://www.w3.org/1999/xlink">
<g><path style="opacity:0.997" fill="#02a1e7" d="M 93.5,-0.5 C 104.167,-0.5 114.833,-0.5 125.5,-0.5C 105.875,11.3198 86.8746,24.1532 68.5,38C 59.2816,49.5509 50.4483,61.3842 42,73.5C 37.6699,79.4946 35.0032,86.1613 34,93.5C 33.3333,110.167 33.3333,126.833 34,143.5C 34.8586,152.125 36.3586,160.625 38.5,169C 36.6327,183.704 37.4661,198.204 41,212.5C 44.9894,223.487 52.1561,231.654 62.5,237C 68.0574,238.506 73.3908,240.506 78.5,243C 104.368,248.813 123.201,239.98 135,216.5C 139.003,205.156 143.003,193.822 147,182.5C 148.511,162.861 156.345,146.361 170.5,133C 173.898,131.643 176.898,129.81 179.5,127.5C 180.959,127.433 182.292,127.766 183.5,128.5C 189.178,130.684 193.844,129.184 197.5,124C 223.043,121.783 248.043,124.283 272.5,131.5C 273.461,135.456 275.795,138.123 279.5,139.5C 283.231,140.196 287.065,140.862 291,141.5C 290.316,145.897 289.15,150.23 287.5,154.5C 281.489,151.748 275.155,150.415 268.5,150.5C 255.033,150.794 242.366,153.96 230.5,160C 224.72,165.623 224.054,171.79 228.5,178.5C 228.489,180.017 227.823,181.184 226.5,182C 222.89,182.472 219.89,183.972 217.5,186.5C 214.321,183.914 210.654,182.414 206.5,182C 196.191,180.243 186.524,181.91 177.5,187C 170.232,186.978 163.566,188.978 157.5,193C 154.833,193.333 152.167,193.667 149.5,194C 147.671,194.273 146.171,195.107 145,196.5C 143.579,203.532 141.246,210.199 138,216.5C 137.667,224.833 137.333,233.167 137,241.5C 135.473,243.221 134.473,245.221 134,247.5C 126.066,254.027 120.066,262.027 116,271.5C 113,273.167 110.667,275.5 109,278.5C 104.298,289.991 99.2981,301.325 94,312.5C 87.3088,315.886 84.9754,321.219 87,328.5C 89.9945,331.82 92.4945,335.487 94.5,339.5C 103.971,347.402 113.971,354.569 124.5,361C 135.817,371.32 147.984,380.487 161,388.5C 161.395,391.207 161.895,393.873 162.5,396.5C 155.046,405.467 148.546,415.133 143,425.5C 142.333,427.5 141.667,429.5 141,431.5C 140.828,438.346 140.328,445.013 139.5,451.5C 134.738,449.903 130.071,448.07 125.5,446C 114.131,445.1 103.798,441.434 94.5,435C 88.2316,433.799 82.2316,431.799 76.5,429C 67.1667,423 57.8333,417 48.5,411C 31.7805,393.739 18.9471,373.906 10,351.5C 8.89111,343.543 8.22444,335.543 8,327.5C 4.61724,320.214 2.61724,312.547 2,304.5C 1.25019,294.005 0.416853,283.671 -0.5,273.5C -0.5,232.5 -0.5,191.5 -0.5,150.5C 2.87719,131.644 6.37719,112.644 10,93.5C 15.5552,84.8347 19.5552,75.5013 22,65.5C 29.3041,48.1771 40.8041,34.5104 56.5,24.5C 66.535,12.3481 78.8683,4.01476 93.5,-0.5 Z"/></g>
<g><path style="opacity:1" fill="#98d8e9" d="M 125.5,-0.5 C 191.5,-0.5 257.5,-0.5 323.5,-0.5C 330.742,3.46454 337.742,7.96454 344.5,13C 351.216,18.7169 358.216,24.0503 365.5,29C 387.878,49.3667 402.711,74.2 410,103.5C 410.338,115.584 411.338,127.584 413,139.5C 413.938,155.554 413.605,171.554 412,187.5C 404.325,209.696 391.159,227.863 372.5,242C 371.748,242.671 371.414,243.504 371.5,244.5C 370.837,240.482 369.67,236.482 368,232.5C 363.177,226.853 358.843,220.853 355,214.5C 353.377,208.055 351.377,201.721 349,195.5C 344.913,192.084 341.58,188.084 339,183.5C 326.392,170.446 311.225,161.946 293.5,158C 291.308,157.074 289.308,155.907 287.5,154.5C 289.15,150.23 290.316,145.897 291,141.5C 287.065,140.862 283.231,140.196 279.5,139.5C 292.116,139.057 295.949,133.057 291,121.5C 289.887,120.695 288.721,120.028 287.5,119.5C 284.696,118.362 281.696,118.195 278.5,119C 277.944,119.383 277.611,119.883 277.5,120.5C 273.963,123.245 272.296,126.912 272.5,131.5C 248.043,124.283 223.043,121.783 197.5,124C 193.844,129.184 189.178,130.684 183.5,128.5C 187.059,128.592 190.392,127.759 193.5,126C 201.985,119.514 209.818,112.347 217,104.5C 225.099,88.3556 222.599,74.189 209.5,62C 205.39,57.8906 200.723,54.5573 195.5,52C 191.235,50.9848 186.902,50.4848 182.5,50.5C 174.233,51.7135 165.899,52.5468 157.5,53C 149.072,57.7596 142.239,64.2596 137,72.5C 136.333,77.1667 136.333,81.8333 137,86.5C 141.745,92.9858 147.578,94.1525 154.5,90C 156.964,86.9508 158.464,83.4508 159,79.5C 160.731,77.3834 162.898,75.8834 165.5,75C 172.255,74.5493 178.922,73.8826 185.5,73C 189.383,76.5504 193.549,79.7171 198,82.5C 198.817,85.9643 198.483,89.2976 197,92.5C 193.03,97.4754 188.197,101.309 182.5,104C 173.351,111.02 172.351,118.853 179.5,127.5C 176.898,129.81 173.898,131.643 170.5,133C 156.345,146.361 148.511,162.861 147,182.5C 143.003,193.822 139.003,205.156 135,216.5C 123.201,239.98 104.368,248.813 78.5,243C 73.3908,240.506 68.0574,238.506 62.5,237C 52.1561,231.654 44.9894,223.487 41,212.5C 37.4661,198.204 36.6327,183.704 38.5,169C 36.3586,160.625 34.8586,152.125 34,143.5C 33.3333,126.833 33.3333,110.167 34,93.5C 35.0032,86.1613 37.6699,79.4946 42,73.5C 50.4483,61.3842 59.2816,49.5509 68.5,38C 86.8746,24.1532 105.875,11.3198 125.5,-0.5 Z"/></g>
<g><path style="opacity:0.997" fill="#03a2e7" d="M 323.5,-0.5 C 331.167,-0.5 338.833,-0.5 346.5,-0.5C 359.796,4.98447 372.463,11.8178 384.5,20C 394.474,29.3053 404.474,38.6387 414.5,48C 421.383,56.2548 426.883,65.4215 431,75.5C 434.217,85.8187 438.217,95.8187 443,105.5C 446.381,122.808 450.881,139.808 456.5,156.5C 455.905,158.44 455.572,160.44 455.5,162.5C 456.117,166.292 457.117,169.959 458.5,173.5C 459.2,183.488 459.7,193.488 460,203.5C 462.662,209.369 464.495,215.369 465.5,221.5C 465.5,224.5 465.5,227.5 465.5,230.5C 464.233,237.676 463.066,245.01 462,252.5C 461.667,269.5 461.333,286.5 461,303.5C 460.626,304.416 460.126,305.25 459.5,306C 460.645,312.752 460.811,319.586 460,326.5C 455.506,338.257 451.506,350.257 448,362.5C 441.473,377.088 431.973,389.254 419.5,399C 415.5,403.667 411.5,408.333 407.5,413C 397.921,420.29 387.588,426.29 376.5,431C 365.271,440.389 352.271,444.389 337.5,443C 330.995,447.892 323.661,450.725 315.5,451.5C 314.289,442.307 313.122,432.974 312,423.5C 309.501,416.501 305.501,410.501 300,405.5C 296.403,393.575 289.403,384.242 279,377.5C 278.829,369.989 278.329,362.655 277.5,355.5C 272.268,348.719 267.268,341.719 262.5,334.5C 269.98,329.172 275.48,322.172 279,313.5C 285.761,307.902 291.261,301.236 295.5,293.5C 297.653,292.992 298.987,292.326 299.5,291.5C 300.93,290.463 302.597,289.796 304.5,289.5C 306.624,288.969 308.124,287.635 309,285.5C 309.333,283.167 309.667,280.833 310,278.5C 322.759,270.535 335.925,263.202 349.5,256.5C 349.666,266.839 349.5,277.172 349,287.5C 346.775,291.281 345.109,295.281 344,299.5C 339.609,302.187 335.109,304.687 330.5,307C 327.035,311.467 323.202,315.633 319,319.5C 314.484,328.605 312.317,338.272 312.5,348.5C 313.022,355.832 313.522,363.165 314,370.5C 317.311,373.792 318.978,377.792 319,382.5C 320.5,384 322,385.5 323.5,387C 335.2,391.343 346.867,395.677 358.5,400C 363.189,406.726 369.189,408.226 376.5,404.5C 378.624,403.969 380.124,402.635 381,400.5C 381.805,397.304 381.638,394.304 380.5,391.5C 378.809,387.637 376.475,384.137 373.5,381C 363.531,376.123 353.198,372.456 342.5,370C 338.399,369.075 336.399,366.575 336.5,362.5C 336.334,354.826 336.5,347.159 337,339.5C 337.847,337.146 338.68,334.812 339.5,332.5C 340.604,330.611 341.937,328.945 343.5,327.5C 347.168,326.002 350.502,324.002 353.5,321.5C 356.808,318.529 360.141,315.529 363.5,312.5C 365.136,311.251 366.303,309.584 367,307.5C 367.561,304.721 368.394,302.054 369.5,299.5C 370.32,297.188 371.153,294.854 372,292.5C 372.755,276.479 372.589,260.479 371.5,244.5C 371.414,243.504 371.748,242.671 372.5,242C 391.159,227.863 404.325,209.696 412,187.5C 413.605,171.554 413.938,155.554 413,139.5C 411.338,127.584 410.338,115.584 410,103.5C 402.711,74.2 387.878,49.3667 365.5,29C 358.216,24.0503 351.216,18.7169 344.5,13C 337.742,7.96454 330.742,3.46454 323.5,-0.5 Z"/></g>
<g><path style="opacity:1" fill="#020303" d="M 183.5,128.5 C 182.292,127.766 180.959,127.433 179.5,127.5C 172.351,118.853 173.351,111.02 182.5,104C 188.197,101.309 193.03,97.4754 197,92.5C 198.483,89.2976 198.817,85.9643 198,82.5C 193.549,79.7171 189.383,76.5504 185.5,73C 178.922,73.8826 172.255,74.5493 165.5,75C 162.898,75.8834 160.731,77.3834 159,79.5C 158.464,83.4508 156.964,86.9508 154.5,90C 147.578,94.1525 141.745,92.9858 137,86.5C 136.333,81.8333 136.333,77.1667 137,72.5C 142.239,64.2596 149.072,57.7596 157.5,53C 165.899,52.5468 174.233,51.7135 182.5,50.5C 186.902,50.4848 191.235,50.9848 195.5,52C 200.723,54.5573 205.39,57.8906 209.5,62C 222.599,74.189 225.099,88.3556 217,104.5C 209.818,112.347 201.985,119.514 193.5,126C 190.392,127.759 187.059,128.592 183.5,128.5 Z"/></g>
<g><path style="opacity:1" fill="#020303" d="M 269.5,62.5 C 292.657,59.1565 302.824,69.1565 300,92.5C 298.82,97.0141 296.154,100.347 292,102.5C 289.193,108.777 284.36,111.277 277.5,110C 272.332,107.353 269.665,103.019 269.5,97C 269.879,94.9076 270.546,92.9076 271.5,91C 271.355,90.228 271.022,89.5613 270.5,89C 259.219,90.7197 254.053,85.8864 255,74.5C 257.976,68.005 262.809,64.005 269.5,62.5 Z"/></g>
<g><path style="opacity:1" fill="#3e585f" d="M 287.5,119.5 C 284.098,119.342 280.764,119.676 277.5,120.5C 277.611,119.883 277.944,119.383 278.5,119C 281.696,118.195 284.696,118.362 287.5,119.5 Z"/></g>
<g><path style="opacity:1" fill="#000101" d="M 287.5,119.5 C 288.721,120.028 289.887,120.695 291,121.5C 295.949,133.057 292.116,139.057 279.5,139.5C 275.795,138.123 273.461,135.456 272.5,131.5C 272.296,126.912 273.963,123.245 277.5,120.5C 280.764,119.676 284.098,119.342 287.5,119.5 Z"/></g>
<g><path style="opacity:1" fill="#010203" d="M 205.5,143.5 C 205.666,148.511 205.499,153.511 205,158.5C 204.347,161.139 203.18,163.473 201.5,165.5C 195.178,168.802 189.678,167.802 185,162.5C 183.847,159.53 182.18,156.863 180,154.5C 177.34,143.185 181.673,136.852 193,135.5C 199.175,135.197 203.342,137.863 205.5,143.5 Z"/></g>
<g><path style="opacity:1" fill="#020303" d="M 93.5,140.5 C 100.241,140.171 106.908,140.671 113.5,142C 127.518,153.264 132.018,167.43 127,184.5C 125.088,186.657 123.421,188.991 122,191.5C 117.179,196.135 112.345,200.635 107.5,205C 101.205,208.978 95.7047,208.145 91,202.5C 88.4354,195.921 89.4354,189.921 94,184.5C 95.8333,182.667 97.6667,180.833 99.5,179C 106.59,177.311 108.423,173.144 105,166.5C 104.333,164.5 103,163.167 101,162.5C 95.3218,170.404 88.3218,172.07 80,167.5C 77.5919,163.858 76.9252,159.858 78,155.5C 81.1179,150.714 84.6179,146.214 88.5,142C 90.3817,141.802 92.0484,141.302 93.5,140.5 Z"/></g>
<g><path style="opacity:1" fill="#9bd6f0" d="M 205.5,143.5 C 206.652,148.985 206.818,154.651 206,160.5C 205.388,163.115 203.888,164.781 201.5,165.5C 203.888,164.781 205.388,163.115 206,160.5C 206.818,154.651 206.652,148.985 205.5,143.5 Z"/></g>
<g><path style="opacity:1" fill="#010203" d="M 287.5,154.5 C 289.308,155.907 291.308,157.074 293.5,158C 311.225,161.946 326.392,170.446 339,183.5C 341.58,188.084 344.913,192.084 349,195.5C 351.377,201.721 353.377,208.055 355,214.5C 358.843,220.853 363.177,226.853 368,232.5C 369.67,236.482 370.837,240.482 371.5,244.5C 372.589,260.479 372.755,276.479 372,292.5C 371.153,294.854 370.32,297.188 369.5,299.5C 368.21,300.058 367.377,301.058 367,302.5C 365.925,305.894 364.758,309.228 363.5,312.5C 360.141,315.529 356.808,318.529 353.5,321.5C 350.445,322.524 347.445,323.857 344.5,325.5C 343.702,325.957 343.369,326.624 343.5,327.5C 341.937,328.945 340.604,330.611 339.5,332.5C 337.716,333.574 336.549,335.24 336,337.5C 335.177,346.01 335.343,354.344 336.5,362.5C 336.399,366.575 338.399,369.075 342.5,370C 353.198,372.456 363.531,376.123 373.5,381C 376.475,384.137 378.809,387.637 380.5,391.5C 380.763,396.375 379.43,400.708 376.5,404.5C 369.189,408.226 363.189,406.726 358.5,400C 346.867,395.677 335.2,391.343 323.5,387C 322,385.5 320.5,384 319,382.5C 318.978,377.792 317.311,373.792 314,370.5C 313.522,363.165 313.022,355.832 312.5,348.5C 312.317,338.272 314.484,328.605 319,319.5C 323.202,315.633 327.035,311.467 330.5,307C 335.109,304.687 339.609,302.187 344,299.5C 345.109,295.281 346.775,291.281 349,287.5C 349.5,277.172 349.666,266.839 349.5,256.5C 350.715,248.018 347.882,241.351 341,236.5C 334.978,226.761 330.311,216.427 327,205.5C 322.533,200.032 317.7,194.865 312.5,190C 307.72,188.444 303.387,186.111 299.5,183C 290.457,181.148 281.791,178.148 273.5,174C 267.118,173.311 260.785,173.645 254.5,175C 246.445,181.901 237.779,183.068 228.5,178.5C 224.054,171.79 224.72,165.623 230.5,160C 242.366,153.96 255.033,150.794 268.5,150.5C 275.155,150.415 281.489,151.748 287.5,154.5 Z"/></g>
<g><path style="opacity:1" fill="#99d8e8" d="M 349.5,256.5 C 335.925,263.202 322.759,270.535 310,278.5C 309.667,280.833 309.333,283.167 309,285.5C 308.124,287.635 306.624,288.969 304.5,289.5C 310.078,282.935 309.745,276.769 303.5,271C 294.042,268.74 284.709,269.073 275.5,272C 269.751,272.148 264.085,272.814 258.5,274C 251.948,277.936 250.114,283.436 253,290.5C 254.543,292.378 256.376,293.878 258.5,295C 267.367,295.781 276.033,294.781 284.5,292C 289.489,291.501 294.489,291.334 299.5,291.5C 298.987,292.326 297.653,292.992 295.5,293.5C 291.261,301.236 285.761,307.902 279,313.5C 275.48,322.172 269.98,329.172 262.5,334.5C 260.66,332.832 258.66,331.332 256.5,330C 251.167,328 245.833,326 240.5,324C 239.315,322.647 237.981,321.48 236.5,320.5C 233.67,312.171 230.836,303.838 228,295.5C 227.451,283.859 225.451,272.526 222,261.5C 216.2,252.1 209.2,251.1 201,258.5C 199.48,262.375 199.146,266.375 200,270.5C 203.684,283.28 206.35,296.28 208,309.5C 210.346,319.725 214.512,329.059 220.5,337.5C 209.57,337.363 199.904,333.863 191.5,327C 180.983,318.803 173.816,308.303 170,295.5C 169.617,296.056 169.117,296.389 168.5,296.5C 171.094,292.728 173.927,289.061 177,285.5C 182.371,273.6 186.371,261.267 189,248.5C 189.383,247.944 189.883,247.611 190.5,247.5C 193.663,245.754 196.996,244.254 200.5,243C 207.604,236.562 215.27,230.895 223.5,226C 227.767,223.255 230.101,219.422 230.5,214.5C 231.901,202.319 227.568,192.986 217.5,186.5C 219.89,183.972 222.89,182.472 226.5,182C 227.823,181.184 228.489,180.017 228.5,178.5C 237.779,183.068 246.445,181.901 254.5,175C 260.785,173.645 267.118,173.311 273.5,174C 281.791,178.148 290.457,181.148 299.5,183C 303.387,186.111 307.72,188.444 312.5,190C 317.7,194.865 322.533,200.032 327,205.5C 330.311,216.427 334.978,226.761 341,236.5C 347.882,241.351 350.715,248.018 349.5,256.5 Z"/></g>
<g><path style="opacity:1" fill="#010203" d="M 217.5,186.5 C 227.568,192.986 231.901,202.319 230.5,214.5C 228.877,218.645 226.211,222.145 222.5,225C 212.186,233.171 201.52,240.671 190.5,247.5C 189.883,247.611 189.383,247.944 189,248.5C 186.371,261.267 182.371,273.6 177,285.5C 173.927,289.061 171.094,292.728 168.5,296.5C 164.768,300.256 163.101,304.59 163.5,309.5C 165.8,312.324 168.8,314.157 172.5,315C 180.833,323.333 189.167,331.667 197.5,340C 203.628,342.563 209.295,345.897 214.5,350C 223.029,352.599 231.029,356.266 238.5,361C 243.246,363.27 248.246,364.437 253.5,364.5C 251.574,359.385 248.574,354.885 244.5,351C 239.681,348.545 234.681,346.545 229.5,345C 226.469,342.492 223.469,339.992 220.5,337.5C 214.512,329.059 210.346,319.725 208,309.5C 206.35,296.28 203.684,283.28 200,270.5C 199.146,266.375 199.48,262.375 201,258.5C 209.2,251.1 216.2,252.1 222,261.5C 225.451,272.526 227.451,283.859 228,295.5C 230.836,303.838 233.67,312.171 236.5,320.5C 237.981,321.48 239.315,322.647 240.5,324C 245.833,326 251.167,328 256.5,330C 258.66,331.332 260.66,332.832 262.5,334.5C 267.268,341.719 272.268,348.719 277.5,355.5C 277.896,363.253 277.396,370.92 276,378.5C 273.148,382.353 269.314,384.853 264.5,386C 251.014,387.799 238.014,386.133 225.5,381C 222.638,380.07 220.305,378.403 218.5,376C 212.5,376.333 207.833,374 204.5,369C 202.414,368.685 200.414,368.185 198.5,367.5C 193.366,363.762 188.033,360.262 182.5,357C 171.382,344.98 159.048,334.646 145.5,326C 143.291,324.127 141.458,321.96 140,319.5C 139.333,313.167 139.333,306.833 140,300.5C 145.837,288.666 152.504,277.333 160,266.5C 162.667,257.167 165.333,247.833 168,238.5C 172.757,231.58 178.923,226.246 186.5,222.5C 193.194,217.464 199.86,212.464 206.5,207.5C 204.458,205.076 201.791,204.076 198.5,204.5C 195.514,204.382 192.848,205.048 190.5,206.5C 184.311,207.789 178.311,209.456 172.5,211.5C 168.603,212.91 164.603,213.91 160.5,214.5C 160.5,223.833 160.5,233.167 160.5,242.5C 159.637,244.421 158.971,246.421 158.5,248.5C 157.129,250.936 156.129,253.603 155.5,256.5C 153.453,258.55 151.786,260.883 150.5,263.5C 147.097,265.9 144.43,268.9 142.5,272.5C 140.058,274.121 138.725,276.454 138.5,279.5C 135.484,282.52 132.817,285.854 130.5,289.5C 129.21,290.058 128.377,291.058 128,292.5C 127.605,295.652 126.772,298.652 125.5,301.5C 122.89,304.632 121.223,308.299 120.5,312.5C 117.171,315.812 114.838,319.812 113.5,324.5C 121.056,330.881 129.056,336.715 137.5,342C 139.833,344.333 142.167,346.667 144.5,349C 150.779,352.946 156.779,357.279 162.5,362C 169.357,365.592 176.024,369.426 182.5,373.5C 182.601,378.407 183.268,383.24 184.5,388C 183.116,399.021 177.116,403.021 166.5,400C 165.295,398.624 163.962,397.458 162.5,396.5C 161.895,393.873 161.395,391.207 161,388.5C 147.984,380.487 135.817,371.32 124.5,361C 113.971,354.569 103.971,347.402 94.5,339.5C 92.4945,335.487 89.9945,331.82 87,328.5C 84.9754,321.219 87.3088,315.886 94,312.5C 99.2981,301.325 104.298,289.991 109,278.5C 110.667,275.5 113,273.167 116,271.5C 120.066,262.027 126.066,254.027 134,247.5C 134.473,245.221 135.473,243.221 137,241.5C 137.333,233.167 137.667,224.833 138,216.5C 141.246,210.199 143.579,203.532 145,196.5C 146.171,195.107 147.671,194.273 149.5,194C 152.167,193.667 154.833,193.333 157.5,193C 163.566,188.978 170.232,186.978 177.5,187C 186.524,181.91 196.191,180.243 206.5,182C 210.654,182.414 214.321,183.914 217.5,186.5 Z"/></g>
<g><path style="opacity:1" fill="#98d2e2" d="M 186.5,222.5 C 189.434,216.806 192.767,211.306 196.5,206C 194.575,206.135 192.575,206.302 190.5,206.5C 192.848,205.048 195.514,204.382 198.5,204.5C 201.791,204.076 204.458,205.076 206.5,207.5C 199.86,212.464 193.194,217.464 186.5,222.5 Z"/></g>
<g><path style="opacity:1" fill="#14a1e4" d="M 186.5,222.5 C 178.923,226.246 172.757,231.58 168,238.5C 165.333,247.833 162.667,257.167 160,266.5C 152.504,277.333 145.837,288.666 140,300.5C 139.333,306.833 139.333,313.167 140,319.5C 141.458,321.96 143.291,324.127 145.5,326C 159.048,334.646 171.382,344.98 182.5,357C 188.033,360.262 193.366,363.762 198.5,367.5C 193.114,369.187 187.78,371.187 182.5,373.5C 176.024,369.426 169.357,365.592 162.5,362C 156.779,357.279 150.779,352.946 144.5,349C 142.167,346.667 139.833,344.333 137.5,342C 129.056,336.715 121.056,330.881 113.5,324.5C 114.838,319.812 117.171,315.812 120.5,312.5C 122.723,309.198 124.39,305.532 125.5,301.5C 126.772,298.652 127.605,295.652 128,292.5C 128.377,291.058 129.21,290.058 130.5,289.5C 132.017,289.489 133.184,288.823 134,287.5C 135.777,284.941 137.277,282.274 138.5,279.5C 138.725,276.454 140.058,274.121 142.5,272.5C 145.903,270.1 148.57,267.1 150.5,263.5C 151.786,260.883 153.453,258.55 155.5,256.5C 157.655,254.383 158.655,251.716 158.5,248.5C 158.971,246.421 159.637,244.421 160.5,242.5C 161.33,234.01 161.83,225.343 162,216.5C 165.835,215.291 169.335,213.624 172.5,211.5C 175.187,211.664 177.854,211.497 180.5,211C 183.815,209.17 187.149,207.67 190.5,206.5C 192.575,206.302 194.575,206.135 196.5,206C 192.767,211.306 189.434,216.806 186.5,222.5 Z"/></g>
<g><path style="opacity:1" fill="#a4c9da" d="M 190.5,206.5 C 187.149,207.67 183.815,209.17 180.5,211C 177.854,211.497 175.187,211.664 172.5,211.5C 178.311,209.456 184.311,207.789 190.5,206.5 Z"/></g>
<g><path style="opacity:1" fill="#020203" d="M 247.5,217.5 C 260.475,214.971 265.308,219.971 262,232.5C 256.926,238.179 251.26,238.846 245,234.5C 241.277,228.173 242.11,222.506 247.5,217.5 Z"/></g>
<g><path style="opacity:1" fill="#4e6e77" d="M 308.5,218.5 C 305.098,218.342 301.764,218.676 298.5,219.5C 298.611,218.883 298.944,218.383 299.5,218C 302.696,217.195 305.696,217.362 308.5,218.5 Z"/></g>
<g><path style="opacity:1" fill="#010101" d="M 308.5,218.5 C 316.117,224.099 316.45,230.266 309.5,237C 298.861,240.28 293.694,236.446 294,225.5C 294.792,222.894 296.292,220.894 298.5,219.5C 301.764,218.676 305.098,218.342 308.5,218.5 Z"/></g>
<g><path style="opacity:1" fill="#050707" d="M 100.5,220.5 C 112.107,220.053 116.273,225.386 113,236.5C 106.229,243.423 99.8953,243.09 94,235.5C 93.3333,232.5 93.3333,229.5 94,226.5C 96.0627,224.266 98.2294,222.266 100.5,220.5 Z"/></g>
<g><path style="opacity:1" fill="#c4e1ee" d="M 172.5,211.5 C 169.335,213.624 165.835,215.291 162,216.5C 161.83,225.343 161.33,234.01 160.5,242.5C 160.5,233.167 160.5,223.833 160.5,214.5C 164.603,213.91 168.603,212.91 172.5,211.5 Z"/></g>
<g><path style="opacity:1" fill="#c6dee4" d="M 230.5,214.5 C 230.101,219.422 227.767,223.255 223.5,226C 215.27,230.895 207.604,236.562 200.5,243C 196.996,244.254 193.663,245.754 190.5,247.5C 201.52,240.671 212.186,233.171 222.5,225C 226.211,222.145 228.877,218.645 230.5,214.5 Z"/></g>
<g><path style="opacity:1" fill="#9fc1d0" d="M 158.5,248.5 C 158.655,251.716 157.655,254.383 155.5,256.5C 156.129,253.603 157.129,250.936 158.5,248.5 Z"/></g>
<g><path style="opacity:1" fill="#96d0ec" d="M 150.5,263.5 C 148.57,267.1 145.903,270.1 142.5,272.5C 144.43,268.9 147.097,265.9 150.5,263.5 Z"/></g>
<g><path style="opacity:1" fill="#020303" d="M 304.5,289.5 C 302.597,289.796 300.93,290.463 299.5,291.5C 294.489,291.334 289.489,291.501 284.5,292C 276.033,294.781 267.367,295.781 258.5,295C 256.376,293.878 254.543,292.378 253,290.5C 250.114,283.436 251.948,277.936 258.5,274C 264.085,272.814 269.751,272.148 275.5,272C 284.709,269.073 294.042,268.74 303.5,271C 309.745,276.769 310.078,282.935 304.5,289.5 Z"/></g>
<g><path style="opacity:1" fill="#98cae2" d="M 138.5,279.5 C 137.277,282.274 135.777,284.941 134,287.5C 133.184,288.823 132.017,289.489 130.5,289.5C 132.817,285.854 135.484,282.52 138.5,279.5 Z"/></g>
<g><path style="opacity:1" fill="#14a0e2" d="M 220.5,337.5 C 223.469,339.992 226.469,342.492 229.5,345C 234.681,346.545 239.681,348.545 244.5,351C 248.574,354.885 251.574,359.385 253.5,364.5C 248.246,364.437 243.246,363.27 238.5,361C 231.029,356.266 223.029,352.599 214.5,350C 209.295,345.897 203.628,342.563 197.5,340C 189.167,331.667 180.833,323.333 172.5,315C 168.8,314.157 165.8,312.324 163.5,309.5C 165.444,305.277 167.111,300.944 168.5,296.5C 169.117,296.389 169.617,296.056 170,295.5C 173.816,308.303 180.983,318.803 191.5,327C 199.904,333.863 209.57,337.363 220.5,337.5 Z"/></g>
<g><path style="opacity:1" fill="#a8cada" d="M 369.5,299.5 C 368.394,302.054 367.561,304.721 367,307.5C 366.303,309.584 365.136,311.251 363.5,312.5C 364.758,309.228 365.925,305.894 367,302.5C 367.377,301.058 368.21,300.058 369.5,299.5 Z"/></g>
<g><path style="opacity:1" fill="#a9cbda" d="M 125.5,301.5 C 124.39,305.532 122.723,309.198 120.5,312.5C 121.223,308.299 122.89,304.632 125.5,301.5 Z"/></g>
<g><path style="opacity:1" fill="#9ac2d5" d="M 168.5,296.5 C 167.111,300.944 165.444,305.277 163.5,309.5C 163.101,304.59 164.768,300.256 168.5,296.5 Z"/></g>
<g><path style="opacity:1" fill="#9fc5d8" d="M 353.5,321.5 C 350.502,324.002 347.168,326.002 343.5,327.5C 343.369,326.624 343.702,325.957 344.5,325.5C 347.445,323.857 350.445,322.524 353.5,321.5 Z"/></g>
<g><path style="opacity:1" fill="#b9dded" d="M 339.5,332.5 C 338.68,334.812 337.847,337.146 337,339.5C 336.5,347.159 336.334,354.826 336.5,362.5C 335.343,354.344 335.177,346.01 336,337.5C 336.549,335.24 337.716,333.574 339.5,332.5 Z"/></g>
<g><path style="opacity:1" fill="#99d8e9" d="M 277.5,355.5 C 278.329,362.655 278.829,369.989 279,377.5C 289.403,384.242 296.403,393.575 300,405.5C 305.501,410.501 309.501,416.501 312,423.5C 313.122,432.974 314.289,442.307 315.5,451.5C 315.5,451.833 315.5,452.167 315.5,452.5C 256.833,452.5 198.167,452.5 139.5,452.5C 139.5,452.167 139.5,451.833 139.5,451.5C 140.328,445.013 140.828,438.346 141,431.5C 141.667,429.5 142.333,427.5 143,425.5C 148.546,415.133 155.046,405.467 162.5,396.5C 163.962,397.458 165.295,398.624 166.5,400C 177.116,403.021 183.116,399.021 184.5,388C 183.268,383.24 182.601,378.407 182.5,373.5C 187.78,371.187 193.114,369.187 198.5,367.5C 200.414,368.185 202.414,368.685 204.5,369C 207.833,374 212.5,376.333 218.5,376C 220.305,378.403 222.638,380.07 225.5,381C 238.014,386.133 251.014,387.799 264.5,386C 269.314,384.853 273.148,382.353 276,378.5C 277.396,370.92 277.896,363.253 277.5,355.5 Z"/></g>
<g><path style="opacity:1" fill="#94cae5" d="M 380.5,391.5 C 381.638,394.304 381.805,397.304 381,400.5C 380.124,402.635 378.624,403.969 376.5,404.5C 379.43,400.708 380.763,396.375 380.5,391.5 Z"/></g>
</svg>
